<svg xmlns="http://www.w3.org/2000/svg" version="1.1" xmlns:xlink="http://www.w3.org/1999/xlink" xmlns:svgjs="http://svgjs.dev/svgjs" width="2000" height="1500" viewBox="0 0 2000 1500"><rect width="2000" height="1500" fill="#1f2d5a"></rect><g transform="matrix(0.4444444444444444,0,0,0.4444444444444444,555.5557610924839,250)"><svg viewBox="0 0 320 360" data-background-color="#1f2d5a" preserveAspectRatio="xMidYMid meet" height="2250" width="2000" xmlns="http://www.w3.org/2000/svg" xmlns:xlink="http://www.w3.org/1999/xlink"><g id="tight-bounds" transform="matrix(1,0,0,1,-0.00007399329416557521,0)"><svg viewBox="0 0 320 360" height="360" width="320"><g><svg></svg></g><g><svg viewBox="0 0 320 360" height="360" width="320"><g><path transform="translate(-17.30355,3.60951) scale(3.54253,3.54253)" d="M50 95v0c-2.2 0-4.1-1.4-4.7-3.5-0.3-1.1-1.5-1.7-2.5-1.4-0.4 0.1-0.8 0.4-1.1 0.8-1.6 2.2-4.6 2.8-6.9 1.2-1.4-0.9-2.2-2.5-2.1-4.2 0-1.1-0.9-2.1-2-2.1-0.5 0-0.9 0.1-1.3 0.4-2.2 1.6-5.3 1.2-6.9-1-1-1.3-1.3-3-0.7-4.6 0.4-1.1-0.2-2.2-1.3-2.6-0.4-0.1-0.9-0.1-1.3 0-2.6 0.9-5.4-0.5-6.3-3.1-0.5-1.5-0.3-3.3 0.7-4.6 0.7-0.9 0.5-2.2-0.4-2.8-0.4-0.3-0.8-0.4-1.3-0.4-2.7 0.1-5-2.1-5-4.8 0-1.7 0.8-3.2 2.1-4.2 0.9-0.6 1.1-1.9 0.5-2.8-0.3-0.4-0.6-0.6-1.1-0.8-2.6-0.8-4.1-3.6-3.3-6.2 0.5-1.6 1.7-2.8 3.3-3.3 1.1-0.3 1.7-1.5 1.4-2.5-0.1-0.4-0.4-0.8-0.8-1.1-2.2-1.6-2.8-4.6-1.2-6.9 0.9-1.4 2.5-2.2 4.2-2.1 1.1 0 2.1-0.9 2.1-2 0-0.5-0.1-0.9-0.4-1.3-1.6-2.2-1.2-5.3 1-6.9 1.3-1 3-1.3 4.6-0.7 1.1 0.4 2.2-0.2 2.6-1.3 0.1-0.4 0.1-0.9 0-1.3-0.9-2.6 0.5-5.4 3.1-6.3 1.5-0.5 3.3-0.3 4.6 0.7 0.9 0.7 2.2 0.5 2.8-0.4 0.3-0.4 0.4-0.8 0.4-1.3-0.1-2.7 2.1-5 4.8-5 1.7 0 3.2 0.8 4.2 2.1 0.6 0.9 1.9 1.1 2.8 0.5 0.4-0.3 0.6-0.6 0.8-1.1 0.8-2.6 3.6-4.1 6.2-3.3 1.6 0.5 2.8 1.7 3.3 3.3v0c0.2 0.7 0.8 1.3 1.6 1.4 0.8 0.1 1.5-0.2 2-0.8 1.6-2.2 4.6-2.8 6.9-1.2 1.4 0.9 2.2 2.5 2.1 4.2 0 1.1 0.9 2.1 2 2.1 0.5 0 0.9-0.1 1.3-0.4 2.2-1.6 5.3-1.2 6.9 1 1 1.3 1.3 3 0.7 4.6-0.4 1.1 0.2 2.2 1.3 2.6 0.4 0.1 0.9 0.1 1.3 0 2.6-0.9 5.4 0.5 6.3 3.1 0.5 1.5 0.3 3.3-0.7 4.6-0.7 0.9-0.5 2.2 0.4 2.8 0.4 0.3 0.8 0.4 1.3 0.4 2.7-0.1 5 2.1 5 4.8 0 1.7-0.8 3.2-2.1 4.2-0.7 0.4-1 1.2-0.9 2 0.1 0.8 0.7 1.4 1.4 1.6 2.6 0.8 4.1 3.6 3.3 6.2-0.5 1.6-1.7 2.8-3.3 3.3-1.1 0.3-1.7 1.5-1.4 2.5 0.1 0.4 0.4 0.8 0.8 1.1 2.2 1.6 2.8 4.6 1.2 6.9-0.9 1.4-2.5 2.2-4.2 2.1-0.8 0-1.5 0.4-1.9 1.1-0.4 0.7-0.3 1.5 0.2 2.2 1.6 2.2 1.2 5.3-1 6.9-1.3 1-3 1.3-4.6 0.7-1.1-0.4-2.2 0.2-2.6 1.3-0.1 0.4-0.1 0.9 0 1.3 0.9 2.6-0.5 5.4-3.1 6.3-1.5 0.5-3.3 0.3-4.6-0.7-0.9-0.7-2.2-0.5-2.8 0.4-0.3 0.4-0.4 0.8-0.4 1.3 0.1 2.7-2.1 5-4.8 5-1.7 0-3.2-0.8-4.2-2.1-0.4-0.6-1.2-1-2-0.8-0.8 0.1-1.4 0.7-1.6 1.4-0.6 2.1-2.5 3.5-4.7 3.5zM43.3 87.2c0.3 0 0.5 0 0.8 0.1 1.9 0.3 3.4 1.6 3.9 3.4 0.3 1.1 1.5 1.7 2.5 1.3 0.6-0.2 1.1-0.7 1.3-1.3 0.8-2.6 3.6-4.1 6.2-3.3 1 0.3 2 1 2.6 1.9 0.7 0.9 1.9 1.1 2.9 0.4 0.5-0.4 0.8-1 0.8-1.6-0.1-2.7 2.1-5 4.8-5 1.1 0 2.2 0.3 3.1 1 0.9 0.7 2.2 0.5 2.8-0.4 0.4-0.5 0.5-1.3 0.3-1.9-0.9-2.6 0.4-5.4 3-6.3 1.1-0.4 2.2-0.4 3.3 0 1.1 0.4 2.2-0.2 2.6-1.3 0.2-0.6 0.1-1.4-0.3-1.9-1.6-2.2-1.2-5.3 1-6.9 0.9-0.7 2-1 3.1-1 1.1 0 2-0.9 2.1-2 0-0.7-0.3-1.3-0.9-1.7-2.2-1.6-2.8-4.6-1.2-6.9 0.6-0.9 1.5-1.6 2.6-1.9 1.1-0.3 1.7-1.5 1.3-2.5-0.2-0.6-0.7-1.1-1.3-1.3-2.6-0.8-4.1-3.6-3.3-6.2 0.3-1 1-2 1.9-2.6 0.9-0.7 1.1-2 0.4-2.9-0.4-0.5-1-0.8-1.6-0.8-2.7 0.1-5-2.1-5-4.8 0-1.1 0.3-2.2 1-3.1 0.7-0.9 0.5-2.2-0.4-2.8-0.5-0.4-1.3-0.5-1.9-0.3-2.6 0.9-5.4-0.4-6.3-3-0.4-1.1-0.4-2.2 0-3.3 0.4-1.1-0.2-2.2-1.3-2.6-0.6-0.2-1.4-0.1-1.9 0.3-2.2 1.6-5.3 1.2-6.9-1-0.7-0.9-1-2-1-3.1 0-1.1-0.9-2-2.1-2-0.6 0-1.3 0.3-1.6 0.8-1.6 2.2-4.6 2.8-6.9 1.2-0.9-0.6-1.6-1.5-1.9-2.6v0c-0.3-1.1-1.5-1.7-2.5-1.3-0.6 0.2-1.1 0.7-1.3 1.3-0.8 2.6-3.6 4.1-6.2 3.3-1-0.3-2-1-2.6-1.9-0.7-0.9-1.9-1.1-2.9-0.4-0.5 0.4-0.8 1-0.8 1.6 0.1 2.7-2.1 5-4.8 5-1.1 0-2.2-0.3-3.1-1-0.9-0.7-2.2-0.5-2.8 0.4-0.4 0.5-0.5 1.3-0.3 1.9 0.9 2.6-0.4 5.4-3 6.3-1.1 0.4-2.2 0.4-3.3 0-1.1-0.4-2.2 0.2-2.6 1.3-0.2 0.6-0.1 1.4 0.3 1.9 1.6 2.2 1.2 5.3-1 6.9-0.9 0.7-2 1-3.1 1-1.1 0-2 0.9-2 2.1 0 0.6 0.3 1.3 0.8 1.6 2.2 1.6 2.8 4.6 1.2 6.9-0.6 0.9-1.5 1.6-2.6 1.9-1.1 0.3-1.7 1.5-1.3 2.5 0.2 0.6 0.7 1.1 1.3 1.3 2.6 0.8 4.1 3.6 3.3 6.2-0.3 1-1 2-1.9 2.6-0.9 0.7-1.1 1.9-0.4 2.9 0.4 0.5 1 0.8 1.6 0.8 2.7-0.1 5 2.1 5 4.8 0 1.1-0.3 2.2-1 3.1-0.7 0.9-0.5 2.2 0.4 2.8 0.5 0.4 1.3 0.5 1.9 0.3 2.6-0.9 5.4 0.4 6.3 3 0.4 1.1 0.4 2.2 0 3.3-0.4 1.1 0.2 2.2 1.3 2.6 0.6 0.2 1.4 0.1 1.9-0.3 2.2-1.6 5.3-1.2 6.9 1 0.7 0.9 1 2 1 3.1 0 1.1 0.9 2 2 2.1 0.7 0 1.3-0.3 1.7-0.9 1-1.3 2.5-2.1 4.1-2.1z" fill="#fbfbfb" fill-rule="nonzero" stroke="none" stroke-width="1" stroke-linecap="butt" stroke-linejoin="miter" stroke-miterlimit="10" stroke-dasharray="" stroke-dashoffset="0" font-family="none" font-weight="none" font-size="none" text-anchor="none" style="mix-blend-mode: normal" data-fill-palette-color="tertiary"></path></g><g transform="matrix(1,0,0,1,56,150.9123149894364)"><svg viewBox="0 0 208 58.17537002112722" height="58.17537002112722" width="208"><g><svg viewBox="0 0 429.1520177647918 120.02921840759677" height="58.17537002112722" width="208"><g><svg viewBox="0 0 208 120.02921840759677" height="120.02921840759677" width="208"><g id="textblocktransform"><svg viewBox="0 0 208 120.02921840759677" height="120.02921840759677" width="208" id="textblock"><g><svg viewBox="0 0 208 120.02921840759677" height="120.02921840759677" width="208"><g transform="matrix(1,0,0,1,0,0)"><svg width="208" viewBox="-0.3 -39 68.45 39.5" height="120.02921840759677" data-palette-color="#fbfbfb"><path d="M26.45-8.55L24.4-13.95 11.05-13.95Q10.2-11.9 9.6-10.33 9-8.75 8.63-7.6 8.25-6.45 8.1-5.65 7.95-4.85 7.95-4.35L7.95-4.35Q7.95-2.95 8.85-2.43 9.75-1.9 11.85-1.9L11.85-1.9 11.85 0-0.3 0-0.3-1.9Q0.85-2.05 1.68-2.3 2.5-2.55 3.13-3 3.75-3.45 4.23-4.17 4.7-4.9 5.15-5.95L5.15-5.95 18.15-38.5 20.3-38.5 31.65-10.3Q32.8-7.5 33.65-5.83 34.5-4.15 35.3-3.3 36.1-2.45 37.02-2.2 37.95-1.95 39.25-1.95L39.25-1.95 39.25 0 22.95 0 22.95-1.95Q25.6-1.95 26.6-2.45 27.6-2.95 27.6-4.1L27.6-4.1Q27.6-4.6 27.55-5.03 27.5-5.45 27.38-5.95 27.25-6.45 27.03-7.08 26.8-7.7 26.45-8.55L26.45-8.55ZM17.9-31.2L12.05-16.45 23.45-16.45 17.9-31.2ZM42.25-0.55L41.5-11.75 43.35-11.75Q43.7-9.5 44.67-7.7 45.65-5.9 47.12-4.65 48.6-3.4 50.52-2.73 52.45-2.05 54.7-2.05L54.7-2.05Q58.4-2.05 60.55-3.8 62.7-5.55 62.7-8.55L62.7-8.55Q62.7-9.8 62.27-10.85 61.85-11.9 60.85-12.88 59.85-13.85 58.17-14.8 56.5-15.75 53.95-16.85L53.95-16.85Q50.85-18.2 48.75-19.45 46.65-20.7 45.4-22.05 44.15-23.4 43.62-24.93 43.1-26.45 43.1-28.4L43.1-28.4Q43.1-30.7 43.92-32.65 44.75-34.6 46.25-36.02 47.75-37.45 49.8-38.23 51.85-39 54.3-39L54.3-39Q56.5-39 58.4-38.3 60.3-37.6 62.25-36.05L62.25-36.05 63.55-38.3 64.7-38.3 65.25-28.35 63.4-28.35Q62.2-32.45 59.92-34.45 57.65-36.45 54.45-36.45L54.45-36.45Q51.4-36.45 49.6-34.95 47.8-33.45 47.8-30.9L47.8-30.9Q47.8-29.7 48.2-28.73 48.6-27.75 49.5-26.88 50.4-26 51.85-25.13 53.3-24.25 55.45-23.3L55.45-23.3Q59.15-21.65 61.6-20.23 64.05-18.8 65.5-17.38 66.95-15.95 67.55-14.38 68.15-12.8 68.15-10.85L68.15-10.85Q68.15-8.35 67.15-6.25 66.15-4.15 64.35-2.65 62.55-1.15 60.05-0.33 57.55 0.5 54.55 0.5L54.55 0.5Q51.7 0.5 49.42-0.3 47.15-1.1 44.8-3L44.8-3 43.4-0.55 42.25-0.55Z" opacity="1" transform="matrix(1,0,0,1,0,0)" fill="#fbfbfb" class="wordmark-text-0" data-fill-palette-color="primary" id="text-0"></path></svg></g></svg></g></svg></g></svg></g><g transform="matrix(1,0,0,1,236.33601776479182,16.081884930717464)"><svg viewBox="0 0 192.81599999999997 87.86544854616184" height="87.86544854616184" width="192.81599999999997"><g><svg xmlns="http://www.w3.org/2000/svg" xmlns:xlink="http://www.w3.org/1999/xlink" version="1.1" x="0" y="0" viewBox="5 29.49387475885969 90 41.012625348283166" enable-background="new 0 0 100 100" xml:space="preserve" height="87.86544854616184" width="192.81599999999997" class="icon-icon-0" data-fill-palette-color="accent" id="icon-0"><g fill="#2f76db" data-fill-palette-color="accent"><path d="M23.943 30.807L5 50.001l18.942 19.192c1.728 1.751 4.53 1.751 6.258 0.002 1.729-1.75 1.73-4.587 0.002-6.338L18.193 50.695l-3.624 2.289 15.634-15.841c0.864-0.875 1.295-2.021 1.295-3.168 0-1.147-0.433-2.295-1.297-3.17C28.473 29.056 25.671 29.057 23.943 30.807z" fill="#2f76db" data-fill-palette-color="accent"></path><path d="M76.057 30.808L95 50.001 76.058 69.193c-1.728 1.751-4.53 1.751-6.258 0.002-1.729-1.75-1.73-4.587-0.002-6.338l12.009-12.161 3.624 2.289L69.796 37.144c-0.864-0.875-1.295-2.021-1.295-3.168 0-1.147 0.433-2.295 1.297-3.17C71.527 29.056 74.329 29.057 76.057 30.808z" fill="#2f76db" data-fill-palette-color="accent"></path><path d="M60.899 32.352c-0.419-1.068-1.241-1.978-2.366-2.476-2.249-0.997-4.857 0.028-5.825 2.288l-13.82 32.062c-0.484 1.13-0.467 2.355-0.048 3.422 0.419 1.068 1.241 1.978 2.366 2.476 2.249 0.997 4.857-0.028 5.825-2.288l13.82-32.062C61.335 34.644 61.318 33.419 60.899 32.352z" fill="#2f76db" data-fill-palette-color="accent"></path></g></svg></g></svg></g></svg></g></svg></g></svg></g><defs></defs></svg><rect width="320" height="360" fill="none" stroke="none" visibility="hidden"></rect></g></svg></g></svg>